<?xml version="1.0" encoding="UTF-8"?>
<svg width="136px" height="120px" viewBox="0 0 136 120" version="1.1" xmlns="http://www.w3.org/2000/svg" xmlns:xlink="http://www.w3.org/1999/xlink">
    <!-- Generator: Sketch 56.2 (81672) - https://sketch.com -->
    <title>Brand/Logotype/Vertical/On Light</title>
    <desc>Created with Sketch.</desc>
    <g id="Brand/Logotype/Vertical/On-Light" stroke="none" stroke-width="1" fill="none" fill-rule="evenodd">
        <g id="logo_horizontal_on-light" transform="translate(16.000000, 8.000000)">
            <g id="Brand/Logotype/Symbol/On-Light" transform="translate(20.000000, 0.000000)" fill="#F46036">
                <path d="M13.4732228,16.7684 L28.8560228,43.4129 C29.4074228,44.3675 30.3287228,44.9735 31.3340228,45.1586 L25.5695228,55.1429 C19.7264228,53.5169 14.4905228,49.6931 11.2181228,44.0255 C6.07222275,35.1125 7.29622275,24.2726 13.4732228,16.7684 Z M28.0510628,55.6754 L43.4341628,29.0309 C43.9852628,28.0763 44.0494628,26.9756 43.7074628,26.0123 L55.2358628,26.0123 C56.7496628,31.8857 56.0560628,38.3318 52.7836628,43.9997 C47.6377628,52.9127 37.6381628,57.2726 28.0510628,55.6754 Z M54.4455128,23.58125 L23.6793128,23.58125 C22.5768128,23.58125 21.5916128,24.07625 20.9286128,24.85415 L15.1644128,14.87015 C19.4937128,10.62245 25.4235128,7.99985 31.9677128,7.99985 C42.2598128,7.99985 51.0354128,14.48015 54.4455128,23.58125 Z" id="VD-Symbol"></path>
            </g>
            <path d="M0,72.5 L4.93611794,72.5 L10.5085995,89.0296703 L16.0638821,72.5 L21,72.5 L13.1744472,95.5 L7.80835381,95.5 L0,72.5 Z M24.2413793,72 C25.0689655,72 25.7586207,72.3173077 26.3103448,72.9342949 C26.7758621,73.4455128 27,74.0625 27,74.75 C27,75.5080128 26.7413793,76.1602564 26.2068966,76.6891026 C25.6724138,77.2355769 25,77.5 24.2241379,77.5 C23.4655172,77.5 22.8275862,77.2355769 22.2931034,76.6891026 C21.7586207,76.1426282 21.5,75.4903846 21.5,74.7147436 C21.5,73.974359 21.7758621,73.3397436 22.3103448,72.7932692 C22.8448276,72.2644231 23.5,72 24.2413793,72 Z M22,80 L26.5,80 L26.5,96 L22,96 L22,80 Z M73,104 L73,80.0497495 L77.615544,80.0497495 L77.615544,80.9259127 C78.9367876,79.9810308 80.3284974,79.5 81.773057,79.5 C83.2,79.5 84.5388601,79.8607731 85.7896373,80.5651396 C87.0756477,81.3038654 88.0974093,82.3002863 88.8373057,83.5544023 C89.6124352,84.8600573 90,86.3031496 90,87.8664996 C90,90.3919112 89.0663212,92.4878311 87.1989637,94.1370795 C85.6310881,95.5114531 83.8341969,96.1986399 81.773057,96.1986399 C80.3284974,96.1986399 78.9367876,95.7176092 77.615544,94.7555476 L77.615544,104 L73,104 Z M81.5272109,92.1557333 C82.670068,92.1557333 83.6315193,91.7632 84.4115646,90.9610667 C85.1371882,90.2272 85.5,89.1861333 85.5,87.872 C85.5,86.4384 85.0283447,85.3461333 84.1031746,84.5781333 C83.3594104,83.9637333 82.4705215,83.6565333 81.4546485,83.6565333 C80.2936508,83.6565333 79.3321995,84.0490667 78.5884354,84.8170667 C77.8628118,85.5850667 77.5,86.6261333 77.5,87.9573333 C77.5,89.3909333 77.9535147,90.4832 78.8786848,91.2512 C79.5861678,91.8485333 80.4750567,92.1557333 81.5272109,92.1557333 Z M45,72.5 L45,95.9502505 L40.384456,95.9502505 L40.384456,95.0740873 C39.0632124,96.0189692 37.6715026,96.5 36.226943,96.5 C34.8,96.5 33.4611399,96.1392269 32.2103627,95.4348604 C30.9243523,94.6961346 29.9025907,93.6997137 29.1626943,92.4455977 C28.3875648,91.1399427 28,89.6968504 28,88.1335004 C28,85.6080888 28.9336788,83.5121689 30.8010363,81.8629205 C32.3689119,80.4885469 34.1658031,79.8013601 36.226943,79.8013601 C37.6715026,79.8013601 39.0632124,80.2823908 40.384456,81.2444524 L40.384456,72.5 L45,72.5 Z M36.4727891,83.8442667 C35.329932,83.8442667 34.3684807,84.2368 33.5884354,85.0389333 C32.8628118,85.7728 32.5,86.8138667 32.5,88.128 C32.5,89.5616 32.9716553,90.6538667 33.8968254,91.4218667 C34.6405896,92.0362667 35.5294785,92.3434667 36.5453515,92.3434667 C37.7063492,92.3434667 38.6678005,91.9509333 39.4115646,91.1829333 C40.1371882,90.4149333 40.5,89.3738667 40.5,88.0426667 C40.5,86.6090667 40.0464853,85.5168 39.1213152,84.7488 C38.4138322,84.1514667 37.5249433,83.8442667 36.4727891,83.8442667 Z M58.9833564,72 C62.4951456,72 65.4576976,73.326802 67.8710125,75.9804059 C69.9514563,78.2645206 71,80.9349195 71,84.0083975 C71,86.1413576 70.4507628,88.139958 69.368932,90.0041987 C68.3203883,91.8012596 66.889043,93.2288314 65.0915395,94.3037089 C63.1941748,95.4289713 61.1803051,96 59.0332871,96 C55.9875173,96 53.3079057,94.9755073 51.0110957,92.926522 C48.331484,90.5248425 47,87.5017495 47,83.8572428 C47,81.7578726 47.5492372,79.8096571 48.631068,78.0125962 C49.779473,76.1147656 51.260749,74.636809 53.074896,73.5955213 C54.9223301,72.5374388 56.9029126,72 58.9833564,72 Z M58.952809,77 C56.9393258,77 55.2404494,77.7480916 53.8561798,79.259542 C52.6134831,80.5877863 52,82.2061069 52,84.1145038 C52,86.0687023 52.8966292,88.0076336 54.4539326,89.3053435 C55.7910112,90.4351145 57.3168539,91 59,91 C60.1797753,91 61.3280899,90.6946565 62.4134831,90.0839695 C63.5460674,89.4580153 64.4269663,88.6030534 65.0404494,87.5496183 C65.6853933,86.4656489 66,85.2900763 66,84.0076336 C66,81.9007634 65.2134831,80.1450382 63.6247191,78.740458 C62.3191011,77.5801527 60.7617978,77 58.952809,77 Z M91,91.6378601 L94.9888424,90.2037037 C95.8772664,91.8652263 96.6025105,92.4423868 97.7085077,92.4423868 C98.6331939,92.4423868 99.2496513,91.9351852 99.2496513,91.1131687 C99.2496513,90.9207819 99.195258,90.7458848 99.0864714,90.5884774 C98.9595537,90.3960905 98.4518828,90.1337449 97.5634589,89.8014403 L95.3695955,88.9444444 C93.1213389,88.0874486 91.9972106,86.6532922 91.9972106,84.6419753 C91.9972106,83.1553498 92.5774059,81.9135802 93.7377964,80.9516461 C94.8981869,79.9897119 96.3124128,79.5 97.9986053,79.5 C100.555091,79.5 102.531381,80.7417695 103.927476,83.2078189 L100.156206,84.9393004 C99.4672245,83.9773663 98.7238494,83.505144 97.944212,83.505144 C97.0195258,83.505144 96.5662483,83.8549383 96.5662483,84.5545267 C96.5662483,84.7469136 96.6206416,84.904321 96.7112971,85.026749 C96.8563459,85.2016461 97.3458856,85.4465021 98.1799163,85.7613169 L100.083682,86.4609053 C102.767085,87.4578189 104,88.8569959 104,90.9382716 C104,92.5298354 103.365411,93.8590535 102.114365,94.9434156 C100.935844,95.9753086 99.4490934,96.5 97.6541144,96.5 C95.6959554,96.5 94.1004184,95.9053498 92.8675035,94.6985597 C92.1603905,94.0164609 91.525802,92.9845679 91,91.6378601 Z" id="VidOps" fill="#141415"></path>
        </g>
    </g>
</svg>