<?xml version="1.0" encoding="UTF-8"?>
<svg width="80px" height="80px" viewBox="0 0 80 80" version="1.1" xmlns="http://www.w3.org/2000/svg" xmlns:xlink="http://www.w3.org/1999/xlink">
    <!-- Generator: Sketch 57.1 (83088) - https://sketch.com -->
    <title>Feature Icon/Booking</title>
    <desc>Created with Sketch.</desc>
    <defs>
        <rect id="path-1" x="0" y="0" width="80" height="80" rx="40"></rect>
        <rect id="path-3" x="0" y="0" width="80" height="80"></rect>
        <path d="M21.25,35.5 C15.7271525,35.5 11.25,31.0228475 11.25,25.5 C11.25,19.9771525 15.7271525,15.5 21.25,15.5 C26.7728475,15.5 31.25,19.9771525 31.25,25.5 C31.25,28.1521649 30.1964316,30.695704 28.3210678,32.5710678 C26.445704,34.4464316 23.9021649,35.5 21.25,35.5 Z M21.25,18 C17.1078644,18 13.75,21.3578644 13.75,25.5 C13.75,29.6421356 17.1078644,33 21.25,33 C25.3921356,33 28.75,29.6421356 28.75,25.5 C28.75,21.3578644 25.3921356,18 21.25,18 Z M23.2375,29.25 L20,26.0125 L20,20.5 L22.5,20.5 L22.5,24.9875 L25,27.4875 L23.2375,29.25 L23.2375,29.25 Z M30,5.5 C30,4.11928813 28.8807119,3 27.5,3 L22.5,3 L22.5,0.5 L20,0.5 L20,3 L10,3 L10,0.5 L7.5,0.5 L7.5,3 L2.5,3 C1.11928813,3 0,4.11928813 0,5.5 L0,30.5 C0,31.8807119 1.11928813,33 2.5,33 L7.5,33 L7.5,30.5 L2.5,30.5 L2.5,5.5 L7.5,5.5 L7.5,8 L10,8 L10,5.5 L20,5.5 L20,8 L22.5,8 L22.5,5.5 L27.5,5.5 L27.5,13 L30,13 L30,5.5 Z" id="path-5"></path>
    </defs>
    <g id="End-users-UI" stroke="none" stroke-width="1" fill="none" fill-rule="evenodd">
        <g id="[Desktop]-VidOps-Landing-page-07082019-Approved" transform="translate(-264.000000, -1160.000000)">
            <g id="How-it-works" transform="translate(107.000000, 1056.000000)">
                <g id="Features" transform="translate(0.000000, 104.000000)">
                    <g id="Feature-Icon/Booking" transform="translate(157.000000, 0.000000)">
                        <g id="Content/Shape/Fill/Circle">
                            <mask id="mask-2" fill="white">
                                <use xlink:href="#path-1"></use>
                            </mask>
                            <use id="🎨-Style" fill="#2D284E" fill-rule="evenodd" xlink:href="#path-1"></use>
                            <g id="State/Normal" mask="url(#mask-2)">
                                <mask id="mask-4" fill="white">
                                    <use xlink:href="#path-3"></use>
                                </mask>
                                <g id="🎨-Style"></g>
                            </g>
                        </g>
                        <g id="icon/image/schedule/32" transform="translate(25.000000, 22.000000)">
                            <mask id="mask-6" fill="white">
                                <use xlink:href="#path-5"></use>
                            </mask>
                            <use id="icon-color" fill="#F46036" xlink:href="#path-5"></use>
                        </g>
                    </g>
                </g>
            </g>
        </g>
    </g>
</svg>