<?xml version="1.0" encoding="UTF-8"?>
<svg width="80px" height="80px" viewBox="0 0 80 80" version="1.1" xmlns="http://www.w3.org/2000/svg" xmlns:xlink="http://www.w3.org/1999/xlink">
    <!-- Generator: Sketch 57.1 (83088) - https://sketch.com -->
    <title>Feature Icon/Delivery</title>
    <desc>Created with Sketch.</desc>
    <defs>
        <rect id="path-1" x="0" y="0" width="80" height="80" rx="40"></rect>
        <rect id="path-3" x="0" y="0" width="80" height="80"></rect>
        <path d="M27.5,16.75 L25.7375,14.9875 L16.25,24.4625 L16.25,0.5 L13.75,0.5 L13.75,24.4625 L4.2625,14.9875 L2.5,16.75 L15,29.25 L27.5,16.75 L27.5,16.75 Z M27.5,28 L27.5,33 L2.5,33 L2.5,28 L0,28 L0,33 L0,33 C0,34.3807119 1.11928813,35.5 2.5,35.5 L27.5,35.5 C28.8807119,35.5 30,34.3807119 30,33 L30,33 L30,28 L27.5,28 Z" id="path-5"></path>
    </defs>
    <g id="End-users-UI" stroke="none" stroke-width="1" fill="none" fill-rule="evenodd">
        <g id="[Desktop]-VidOps-Landing-page-07082019-Approved" transform="translate(-1096.000000, -1160.000000)">
            <g id="How-it-works" transform="translate(107.000000, 1056.000000)">
                <g id="Features" transform="translate(833.000000, 104.000000)">
                    <g id="Feature-Icon/Delivery" transform="translate(156.000000, 0.000000)">
                        <g id="Content/Shape/Fill/Circle">
                            <mask id="mask-2" fill="white">
                                <use xlink:href="#path-1"></use>
                            </mask>
                            <use id="🎨-Style" fill="#2D284E" fill-rule="evenodd" xlink:href="#path-1"></use>
                            <g id="State/Normal" mask="url(#mask-2)">
                                <mask id="mask-4" fill="white">
                                    <use xlink:href="#path-3"></use>
                                </mask>
                                <g id="🎨-Style"></g>
                            </g>
                        </g>
                        <g id="icon/file/download/32" transform="translate(25.000000, 22.000000)">
                            <mask id="mask-6" fill="white">
                                <use xlink:href="#path-5"></use>
                            </mask>
                            <use id="icon-color" fill="#F46036" xlink:href="#path-5"></use>
                        </g>
                    </g>
                </g>
            </g>
        </g>
    </g>
</svg>