<?xml version="1.0" encoding="UTF-8"?>
<svg width="80px" height="80px" viewBox="0 0 80 80" version="1.1" xmlns="http://www.w3.org/2000/svg" xmlns:xlink="http://www.w3.org/1999/xlink">
    <!-- Generator: Sketch 57.1 (83088) - https://sketch.com -->
    <title>Feature Icon/Production</title>
    <desc>Created with Sketch.</desc>
    <defs>
        <rect id="path-1" x="0" y="0" width="80" height="80" rx="40"></rect>
        <rect id="path-3" x="0" y="0" width="80" height="80"></rect>
        <path d="M33,0 L3,0 C1.61928813,0 0.5,1.11928813 0.5,2.5 L0.5,22.5 C0.5,23.8807119 1.61928813,25 3,25 L13,25 L13,30 L8,30 L8,32.5 L28,32.5 L28,30 L23,30 L23,25 L33,25 C34.3807119,25 35.5,23.8807119 35.5,22.5 L35.5,2.5 C35.5,1.11928813 34.3807119,0 33,0 Z M20.5,30 L15.5,30 L15.5,25 L20.5,25 L20.5,30 Z M33,22.5 L3,22.5 L3,2.5 L33,2.5 L33,22.5 Z" id="path-5"></path>
    </defs>
    <g id="End-users-UI" stroke="none" stroke-width="1" fill="none" fill-rule="evenodd">
        <g id="[Desktop]-VidOps-Landing-page-07082019-Approved" transform="translate(-680.000000, -1160.000000)">
            <g id="How-it-works" transform="translate(107.000000, 1056.000000)">
                <g id="Features" transform="translate(417.000000, 104.000000)">
                    <g id="Feature-Icon/Production" transform="translate(156.000000, 0.000000)">
                        <g id="Content/Shape/Fill/Circle">
                            <mask id="mask-2" fill="white">
                                <use xlink:href="#path-1"></use>
                            </mask>
                            <use id="🎨-Style" fill="#2D284E" fill-rule="evenodd" xlink:href="#path-1"></use>
                            <g id="State/Normal" mask="url(#mask-2)">
                                <mask id="mask-4" fill="white">
                                    <use xlink:href="#path-3"></use>
                                </mask>
                                <g id="🎨-Style"></g>
                            </g>
                        </g>
                        <g id="icon/image/desktop/32" transform="translate(22.000000, 25.000000)">
                            <mask id="mask-6" fill="white">
                                <use xlink:href="#path-5"></use>
                            </mask>
                            <use id="icon-color" fill="#F46036" xlink:href="#path-5"></use>
                        </g>
                    </g>
                </g>
            </g>
        </g>
    </g>
</svg>