<?xml version="1.0" encoding="UTF-8"?>
<svg width="176px" height="64px" viewBox="0 0 176 64" version="1.1" xmlns="http://www.w3.org/2000/svg" xmlns:xlink="http://www.w3.org/1999/xlink">
    <!-- Generator: Sketch 56.2 (81672) - https://sketch.com -->
    <title>Brand/Logotype/Horizontal/On Light</title>
    <desc>Created with Sketch.</desc>
    <g id="Brand/Logotype/Horizontal/On-Light" stroke="none" stroke-width="1" fill="none" fill-rule="evenodd">
        <g id="logo_horizontal_on-light">
            <g id="Brand/Logotype/Symbol/On-Dark" fill="#F46036">
                <path d="M13.4732228,16.7684 L28.8560228,43.4129 C29.4074228,44.3675 30.3287228,44.9735 31.3340228,45.1586 L25.5695228,55.1429 C19.7264228,53.5169 14.4905228,49.6931 11.2181228,44.0255 C6.07222275,35.1125 7.29622275,24.2726 13.4732228,16.7684 Z M28.0510628,55.6754 L43.4341628,29.0309 C43.9852628,28.0763 44.0494628,26.9756 43.7074628,26.0123 L55.2358628,26.0123 C56.7496628,31.8857 56.0560628,38.3318 52.7836628,43.9997 C47.6377628,52.9127 37.6381628,57.2726 28.0510628,55.6754 Z M54.4455128,23.58125 L23.6793128,23.58125 C22.5768128,23.58125 21.5916128,24.07625 20.9286128,24.85415 L15.1644128,14.87015 C19.4937128,10.62245 25.4235128,7.99985 31.9677128,7.99985 C42.2598128,7.99985 51.0354128,14.48015 54.4455128,23.58125 Z" id="VD-Symbol"></path>
            </g>
            <path d="M64,20.5 L68.9361179,20.5 L74.5085995,37.0296703 L80.0638821,20.5 L85,20.5 L77.1744472,43.5 L71.8083538,43.5 L64,20.5 Z M88.2413793,20 C89.0689655,20 89.7586207,20.3173077 90.3103448,20.9342949 C90.7758621,21.4455128 91,22.0625 91,22.75 C91,23.5080128 90.7413793,24.1602564 90.2068966,24.6891026 C89.6724138,25.2355769 89,25.5 88.2241379,25.5 C87.4655172,25.5 86.8275862,25.2355769 86.2931034,24.6891026 C85.7586207,24.1426282 85.5,23.4903846 85.5,22.7147436 C85.5,21.974359 85.7758621,21.3397436 86.3103448,20.7932692 C86.8448276,20.2644231 87.5,20 88.2413793,20 Z M86,28 L90.5,28 L90.5,44 L86,44 L86,28 Z M137,52 L137,28.0497495 L141.615544,28.0497495 L141.615544,28.9259127 C142.936788,27.9810308 144.328497,27.5 145.773057,27.5 C147.2,27.5 148.53886,27.8607731 149.789637,28.5651396 C151.075648,29.3038654 152.097409,30.3002863 152.837306,31.5544023 C153.612435,32.8600573 154,34.3031496 154,35.8664996 C154,38.3919112 153.066321,40.4878311 151.198964,42.1370795 C149.631088,43.5114531 147.834197,44.1986399 145.773057,44.1986399 C144.328497,44.1986399 142.936788,43.7176092 141.615544,42.7555476 L141.615544,52 L137,52 Z M145.527211,40.1557333 C146.670068,40.1557333 147.631519,39.7632 148.411565,38.9610667 C149.137188,38.2272 149.5,37.1861333 149.5,35.872 C149.5,34.4384 149.028345,33.3461333 148.103175,32.5781333 C147.35941,31.9637333 146.470522,31.6565333 145.454649,31.6565333 C144.293651,31.6565333 143.3322,32.0490667 142.588435,32.8170667 C141.862812,33.5850667 141.5,34.6261333 141.5,35.9573333 C141.5,37.3909333 141.953515,38.4832 142.878685,39.2512 C143.586168,39.8485333 144.475057,40.1557333 145.527211,40.1557333 Z M109,20.5 L109,43.9502505 L104.384456,43.9502505 L104.384456,43.0740873 C103.063212,44.0189692 101.671503,44.5 100.226943,44.5 C98.8,44.5 97.4611399,44.1392269 96.2103627,43.4348604 C94.9243523,42.6961346 93.9025907,41.6997137 93.1626943,40.4455977 C92.3875648,39.1399427 92,37.6968504 92,36.1335004 C92,33.6080888 92.9336788,31.5121689 94.8010363,29.8629205 C96.3689119,28.4885469 98.1658031,27.8013601 100.226943,27.8013601 C101.671503,27.8013601 103.063212,28.2823908 104.384456,29.2444524 L104.384456,20.5 L109,20.5 Z M100.472789,31.8442667 C99.329932,31.8442667 98.3684807,32.2368 97.5884354,33.0389333 C96.8628118,33.7728 96.5,34.8138667 96.5,36.128 C96.5,37.5616 96.9716553,38.6538667 97.8968254,39.4218667 C98.6405896,40.0362667 99.5294785,40.3434667 100.545351,40.3434667 C101.706349,40.3434667 102.6678,39.9509333 103.411565,39.1829333 C104.137188,38.4149333 104.5,37.3738667 104.5,36.0426667 C104.5,34.6090667 104.046485,33.5168 103.121315,32.7488 C102.413832,32.1514667 101.524943,31.8442667 100.472789,31.8442667 Z M122.983356,20 C126.495146,20 129.457698,21.326802 131.871012,23.9804059 C133.951456,26.2645206 135,28.9349195 135,32.0083975 C135,34.1413576 134.450763,36.139958 133.368932,38.0041987 C132.320388,39.8012596 130.889043,41.2288314 129.09154,42.3037089 C127.194175,43.4289713 125.180305,44 123.033287,44 C119.987517,44 117.307906,42.9755073 115.011096,40.926522 C112.331484,38.5248425 111,35.5017495 111,31.8572428 C111,29.7578726 111.549237,27.8096571 112.631068,26.0125962 C113.779473,24.1147656 115.260749,22.636809 117.074896,21.5955213 C118.92233,20.5374388 120.902913,20 122.983356,20 Z M122.952809,25 C120.939326,25 119.240449,25.7480916 117.85618,27.259542 C116.613483,28.5877863 116,30.2061069 116,32.1145038 C116,34.0687023 116.896629,36.0076336 118.453933,37.3053435 C119.791011,38.4351145 121.316854,39 123,39 C124.179775,39 125.32809,38.6946565 126.413483,38.0839695 C127.546067,37.4580153 128.426966,36.6030534 129.040449,35.5496183 C129.685393,34.4656489 130,33.2900763 130,32.0076336 C130,29.9007634 129.213483,28.1450382 127.624719,26.740458 C126.319101,25.5801527 124.761798,25 122.952809,25 Z M155,39.6378601 L158.988842,38.2037037 C159.877266,39.8652263 160.60251,40.4423868 161.708508,40.4423868 C162.633194,40.4423868 163.249651,39.9351852 163.249651,39.1131687 C163.249651,38.9207819 163.195258,38.7458848 163.086471,38.5884774 C162.959554,38.3960905 162.451883,38.1337449 161.563459,37.8014403 L159.369596,36.9444444 C157.121339,36.0874486 155.997211,34.6532922 155.997211,32.6419753 C155.997211,31.1553498 156.577406,29.9135802 157.737796,28.9516461 C158.898187,27.9897119 160.312413,27.5 161.998605,27.5 C164.555091,27.5 166.531381,28.7417695 167.927476,31.2078189 L164.156206,32.9393004 C163.467225,31.9773663 162.723849,31.505144 161.944212,31.505144 C161.019526,31.505144 160.566248,31.8549383 160.566248,32.5545267 C160.566248,32.7469136 160.620642,32.904321 160.711297,33.026749 C160.856346,33.2016461 161.345886,33.4465021 162.179916,33.7613169 L164.083682,34.4609053 C166.767085,35.4578189 168,36.8569959 168,38.9382716 C168,40.5298354 167.365411,41.8590535 166.114365,42.9434156 C164.935844,43.9753086 163.449093,44.5 161.654114,44.5 C159.695955,44.5 158.100418,43.9053498 156.867503,42.6985597 C156.160391,42.0164609 155.525802,40.9845679 155,39.6378601 Z" id="VidOps" fill="#141415"></path>
        </g>
    </g>
</svg>