<?xml version="1.0" encoding="UTF-8"?>
<svg width="236px" height="80px" viewBox="0 0 236 80" version="1.1" xmlns="http://www.w3.org/2000/svg" xmlns:xlink="http://www.w3.org/1999/xlink">
    <!-- Generator: Sketch 56.2 (81672) - https://sketch.com -->
    <title>Brand/Logotype/Horizontal/On Light w Tagline</title>
    <desc>Created with Sketch.</desc>
    <g id="Brand/Logotype/Horizontal/On-Light-w-Tagline" stroke="none" stroke-width="1" fill="none" fill-rule="evenodd">
        <g id="logo_horizontal_on-light" transform="translate(8.000000, 8.000000)">
            <g id="Brand/Logotype/Symbol/On-Light" fill="#F46036">
                <path d="M13.4732228,16.7684 L28.8560228,43.4129 C29.4074228,44.3675 30.3287228,44.9735 31.3340228,45.1586 L25.5695228,55.1429 C19.7264228,53.5169 14.4905228,49.6931 11.2181228,44.0255 C6.07222275,35.1125 7.29622275,24.2726 13.4732228,16.7684 Z M28.0510628,55.6754 L43.4341628,29.0309 C43.9852628,28.0763 44.0494628,26.9756 43.7074628,26.0123 L55.2358628,26.0123 C56.7496628,31.8857 56.0560628,38.3318 52.7836628,43.9997 C47.6377628,52.9127 37.6381628,57.2726 28.0510628,55.6754 Z M54.4455128,23.58125 L23.6793128,23.58125 C22.5768128,23.58125 21.5916128,24.07625 20.9286128,24.85415 L15.1644128,14.87015 C19.4937128,10.62245 25.4235128,7.99985 31.9677128,7.99985 C42.2598128,7.99985 51.0354128,14.48015 54.4455128,23.58125 Z" id="VD-Symbol"></path>
            </g>
            <path d="M64,14.375 L67.7020885,14.375 L71.8814496,26.7722527 L76.0479115,14.375 L79.75,14.375 L73.8808354,31.625 L69.8562654,31.625 L64,14.375 Z M82.1810345,14 C82.8017241,14 83.3189655,14.2379808 83.7327586,14.7007212 C84.0818966,15.0841346 84.25,15.546875 84.25,16.0625 C84.25,16.6310096 84.0560345,17.1201923 83.6551724,17.5168269 C83.2543103,17.9266827 82.75,18.125 82.1681034,18.125 C81.5991379,18.125 81.1206897,17.9266827 80.7198276,17.5168269 C80.3189655,17.1069712 80.125,16.6177885 80.125,16.0360577 C80.125,15.4807692 80.3318966,15.0048077 80.7327586,14.5949519 C81.1336207,14.1983173 81.625,14 82.1810345,14 Z M80.5,20 L83.875,20 L83.875,32 L80.5,32 L80.5,20 Z M118.75,38 L118.75,20.0373121 L122.211658,20.0373121 L122.211658,20.6944345 C123.202591,19.9857731 124.246373,19.625 125.329793,19.625 C126.4,19.625 127.404145,19.8955798 128.342228,20.4238547 C129.306736,20.9778991 130.073057,21.7252147 130.627979,22.6658017 C131.209326,23.6450429 131.5,24.7273622 131.5,25.8998747 C131.5,27.7939334 130.799741,29.3658733 129.399223,30.6028096 C128.223316,31.6335898 126.875648,32.14898 125.329793,32.14898 C124.246373,32.14898 123.202591,31.7882069 122.211658,31.0666607 L122.211658,38 L118.75,38 Z M125.145408,29.1168 C126.002551,29.1168 126.723639,28.8224 127.308673,28.2208 C127.852891,27.6704 128.125,26.8896 128.125,25.904 C128.125,24.8288 127.771259,24.0096 127.077381,23.4336 C126.519558,22.9728 125.852891,22.7424 125.090986,22.7424 C124.220238,22.7424 123.49915,23.0368 122.941327,23.6128 C122.397109,24.1888 122.125,24.9696 122.125,25.968 C122.125,27.0432 122.465136,27.8624 123.159014,28.4384 C123.689626,28.8864 124.356293,29.1168 125.145408,29.1168 Z M97.75,14.375 L97.75,31.9626879 L94.288342,31.9626879 L94.288342,31.3055655 C93.2974093,32.0142269 92.2536269,32.375 91.1702073,32.375 C90.1,32.375 89.0958549,32.1044202 88.157772,31.5761453 C87.1932642,31.0221009 86.426943,30.2747853 85.8720207,29.3341983 C85.2906736,28.3549571 85,27.2726378 85,26.1001253 C85,24.2060666 85.7002591,22.6341267 87.1007772,21.3971904 C88.2766839,20.3664102 89.6243523,19.85102 91.1702073,19.85102 C92.2536269,19.85102 93.2974093,20.2117931 94.288342,20.9333393 L94.288342,14.375 L97.75,14.375 Z M91.3545918,22.8832 C90.497449,22.8832 89.7763605,23.1776 89.1913265,23.7792 C88.6471088,24.3296 88.375,25.1104 88.375,26.096 C88.375,27.1712 88.7287415,27.9904 89.422619,28.5664 C89.9804422,29.0272 90.6471088,29.2576 91.4090136,29.2576 C92.2797619,29.2576 93.0008503,28.9632 93.5586735,28.3872 C94.1028912,27.8112 94.375,27.0304 94.375,26.032 C94.375,24.9568 94.0348639,24.1376 93.3409864,23.5616 C92.8103741,23.1136 92.1437075,22.8832 91.3545918,22.8832 Z M108.237517,14 C110.871359,14 113.093273,14.9951015 114.903259,16.9853044 C116.463592,18.6983905 117.25,20.7011896 117.25,23.0062981 C117.25,24.6060182 116.838072,26.1049685 116.026699,27.5031491 C115.240291,28.8509447 114.166782,29.9216235 112.818655,30.7277817 C111.395631,31.5717285 109.885229,32 108.274965,32 C105.990638,32 103.980929,31.2316305 102.258322,29.6948915 C100.248613,27.8936319 99.25,25.6263121 99.25,22.8929321 C99.25,21.3184045 99.6619279,19.8572428 100.473301,18.5094472 C101.334605,17.0860742 102.445562,15.9776067 103.806172,15.196641 C105.191748,14.4030791 106.677184,14 108.237517,14 Z M108.214607,17.75 C106.704494,17.75 105.430337,18.3110687 104.392135,19.4446565 C103.460112,20.4408397 103,21.6545802 103,23.0858779 C103,24.5515267 103.672472,26.0057252 104.840449,26.9790076 C105.843258,27.8263359 106.98764,28.25 108.25,28.25 C109.134831,28.25 109.996067,28.0209924 110.810112,27.5629771 C111.659551,27.0935115 112.320225,26.4522901 112.780337,25.6622137 C113.264045,24.8492366 113.5,23.9675573 113.5,23.0057252 C113.5,21.4255725 112.910112,20.1087786 111.718539,19.0553435 C110.739326,18.1851145 109.571348,17.75 108.214607,17.75 Z M132.25,28.7283951 L135.241632,27.6527778 C135.90795,28.8989198 136.451883,29.3317901 137.281381,29.3317901 C137.974895,29.3317901 138.437238,28.9513889 138.437238,28.3348765 C138.437238,28.1905864 138.396444,28.0594136 138.314854,27.941358 C138.219665,27.7970679 137.838912,27.6003086 137.172594,27.3510802 L135.527197,26.7083333 C133.841004,26.0655864 132.997908,24.9899691 132.997908,23.4814815 C132.997908,22.3665123 133.433054,21.4351852 134.303347,20.7137346 C135.17364,19.992284 136.23431,19.625 137.498954,19.625 C139.416318,19.625 140.898536,20.5563272 141.945607,22.4058642 L139.117155,23.7044753 C138.600418,22.9830247 138.042887,22.628858 137.458159,22.628858 C136.764644,22.628858 136.424686,22.8912037 136.424686,23.4158951 C136.424686,23.5601852 136.465481,23.6782407 136.533473,23.7700617 C136.642259,23.9012346 137.009414,24.0848765 137.634937,24.3209877 L139.062762,24.845679 C141.075314,25.5933642 142,26.6427469 142,28.2037037 C142,29.3973765 141.524059,30.3942901 140.585774,31.2075617 C139.701883,31.9814815 138.58682,32.375 137.240586,32.375 C135.771967,32.375 134.575314,31.9290123 133.650628,31.0239198 C133.120293,30.5123457 132.644351,29.7384259 132.25,28.7283951 Z" id="VidOps" fill="#141415"></path>
            <path d="M69.0876195,43.5047112 L67.8674623,44.2905049 C67.7040484,44.0285736 67.562423,43.8390915 67.4425862,43.7164854 C67.2519366,43.5158572 67.0068158,43.4155431 66.7181179,43.4155431 C66.4185257,43.4155431 66.1842991,43.5158572 66.0154381,43.7109124 C65.8792599,43.8781025 65.8084472,44.0620117 65.8084472,44.2626398 C65.8084472,44.5747281 66.0753565,44.8310863 66.6091753,45.0372875 L67.2955137,45.3047917 C68.0690061,45.6001609 68.5919306,45.9735522 68.8697343,46.4193926 C69.0603838,46.7370538 69.1584322,47.0881531 69.1584322,47.4838364 C69.1584322,48.202754 68.8915228,48.8102115 68.357704,49.2950629 C67.8674623,49.7409033 67.2737252,49.9638234 66.5764925,49.9638234 C66.0045439,49.9638234 65.5034079,49.8077793 65.0621904,49.4956911 C64.5501601,49.1334458 64.1960967,48.5148423 64,47.6287345 L65.4543837,47.2330512 C65.5578792,47.6677456 65.6613747,47.9575418 65.7539759,48.0968669 C65.9555197,48.3922362 66.2333233,48.5427073 66.5928339,48.5427073 C66.9251088,48.5427073 67.1920182,48.4256742 67.3990091,48.186035 C67.5733173,47.9854068 67.6604714,47.7569137 67.6604714,47.5005554 C67.6604714,47.3445113 67.6223415,47.2107592 67.5406345,47.1048721 C67.4153505,46.932109 67.1212055,46.7593458 66.6581995,46.5810097 L66.0045439,46.3246515 C64.8878822,45.8899571 64.3268278,45.1989046 64.3268278,44.2514938 C64.3268278,43.5994523 64.5610544,43.0588709 65.0349547,42.6297495 C65.4979608,42.2117742 66.0753565,42 66.7562478,42 C67.5079517,42 68.1289246,42.2786502 68.6191663,42.8415237 C68.7662388,43.0087138 68.9242056,43.231634 69.0876195,43.5047112 Z M73.1557885,46.0348553 L72.4149788,46.0348553 L72.4149788,48.0857209 C72.4149788,48.4145282 72.4694501,48.5259883 72.6219697,48.5259883 C72.758148,48.5259883 72.9542447,48.4758312 73.221154,48.3810902 L73.221154,49.7409033 C72.9433504,49.8356443 72.6709939,49.8858014 72.4149788,49.8858014 C71.9792084,49.8858014 71.6305921,49.7409033 71.374577,49.445534 C71.1185618,49.1501648 70.9878307,48.7098974 70.9878307,48.1191589 L70.9878307,46.0348553 L70.4812476,46.0348553 L70.4812476,44.7251992 L70.9878307,44.7251992 L70.9878307,43.6774744 L72.4149788,43.1090279 L72.4149788,44.7251992 L73.1557885,44.7251992 L73.1557885,46.0348553 Z M76.3088396,44.7251992 L76.3088396,44.9982764 C76.5866433,44.7920753 76.8862354,44.6917612 77.2076161,44.6917612 C77.3437944,44.6917612 77.5072083,44.7029072 77.7033049,44.7307722 L77.7033049,46.0292823 C77.4908669,46.0125632 77.327453,46.0014172 77.2130632,46.0014172 C76.869894,46.0014172 76.6302203,46.0961583 76.5049363,46.2856405 C76.3742052,46.4806956 76.3088396,46.8317949 76.3088396,47.3445113 L76.3088396,49.7854873 L74.8816916,49.7854873 L74.8816916,44.7251992 L76.3088396,44.7251992 Z M82.485048,48.0244179 L83.7378879,48.5315613 C83.1604921,49.484545 82.3761054,49.9638234 81.3901749,49.9638234 C80.6057881,49.9638234 79.9684739,49.6796002 79.4727851,49.1055807 C79.0206733,48.5928643 78.7973409,47.9742608 78.7973409,47.2553432 C78.7973409,46.4305386 79.0805917,45.750632 79.6470932,45.2156236 C80.1209935,44.7697832 80.6766008,44.5468631 81.3248093,44.5468631 C82.0547247,44.5468631 82.6593562,44.8199403 83.1441507,45.3716677 C83.5908154,45.8843841 83.8141477,46.5475717 83.8141477,47.3612303 C83.8141477,47.4113874 83.8087006,47.5451395 83.8032535,47.7624867 L80.2626189,47.7624867 C80.4423742,48.3699441 80.8127791,48.6708864 81.3847277,48.6708864 C81.858628,48.6708864 82.2290329,48.4535392 82.485048,48.0244179 Z M80.2626189,46.7426268 L82.3978939,46.7426268 C82.2017972,46.1295963 81.8477338,45.8230811 81.3302564,45.8230811 C80.7800963,45.8230811 80.4205857,46.1295963 80.2626189,46.7426268 Z M90.3825494,44.7251992 L90.3825494,49.7854873 L88.9554014,49.7854873 L88.9554014,49.5012641 C88.5468666,49.8077793 88.1165433,49.9638234 87.6698787,49.9638234 C87.2286611,49.9638234 86.8092321,49.8467903 86.4224859,49.6182972 C86.0248454,49.378658 85.7089118,49.0554237 85.4801324,48.6485944 C85.2404587,48.225046 85.1206218,47.7569137 85.1206218,47.2497702 C85.1206218,46.4305386 85.4093197,45.750632 85.9867155,45.2156236 C86.4715101,44.7697832 87.0325644,44.5468631 87.6698787,44.5468631 C88.1165433,44.5468631 88.5468666,44.7029072 88.9554014,45.0094224 L88.9554014,44.7251992 L90.3825494,44.7251992 Z M87.7570327,45.8676651 C87.4138636,45.8676651 87.1197185,45.9958442 86.8854919,46.2577754 C86.6676067,46.4974146 86.5586641,46.8373679 86.5586641,47.2720623 C86.5586641,47.7346216 86.6948424,48.0912939 86.972646,48.3365061 C87.2014255,48.5427073 87.4683349,48.6430214 87.7733741,48.6430214 C88.1274376,48.6430214 88.4161355,48.5148423 88.6394678,48.2640571 C88.8628001,48.0132719 88.9717427,47.6733186 88.9717427,47.2441972 C88.9717427,46.7704919 88.8355645,46.4138196 88.5577609,46.1630344 C88.3398757,45.9679792 88.0729663,45.8676651 87.7570327,45.8676651 Z M96.106646,45.1041635 C96.5315221,44.7307722 97.0108696,44.5468631 97.5446883,44.5468631 C98.1275312,44.5468631 98.6123258,44.7251992 98.999072,45.0874445 C99.24964,45.3159377 99.4293953,45.5834419 99.5328908,45.8899571 C99.6363862,46.1964724 99.6908575,46.5921557 99.6908575,47.0714341 L99.6908575,49.7854873 L98.2637095,49.7854873 L98.2637095,47.1550292 C98.2637095,46.6924698 98.2146853,46.3636625 98.116637,46.1686074 C98.0131415,45.9679792 97.8279391,45.8676651 97.5501354,45.8676651 C97.2614375,45.8676651 96.989081,46.0125632 96.8801384,46.2187644 C96.776643,46.4138196 96.7276188,46.7593458 96.7276188,47.2553432 L96.7276188,49.7854873 L95.3004707,49.7854873 L95.3004707,47.1550292 C95.3004707,46.6924698 95.2514466,46.3636625 95.1533982,46.1741804 C95.0499027,45.9679792 94.8538061,45.8676651 94.5760024,45.8676651 C94.2873045,45.8676651 94.014948,46.0125632 93.9005583,46.2187644 C93.7970628,46.4138196 93.7480387,46.7593458 93.7480387,47.2553432 L93.7480387,49.7854873 L92.3208906,49.7854873 L92.3208906,44.7251992 L93.7425915,44.7251992 L93.7425915,44.9592654 C94.1184435,44.6527501 94.4016943,44.5468631 94.8156762,44.5468631 C95.2732351,44.5468631 95.7035584,44.7307722 96.106646,45.1041635 Z M103.072688,42.1783361 L103.072688,49.7854873 L101.64554,49.7854873 L101.64554,42.1783361 L103.072688,42.1783361 Z M105.740945,42.1281791 C106.002407,42.1281791 106.220292,42.2284932 106.3946,42.4235483 C106.541673,42.5851655 106.612486,42.7802206 106.612486,42.9975678 C106.612486,43.237207 106.530779,43.4434082 106.361918,43.6105983 C106.193057,43.7833614 105.980618,43.8669565 105.735498,43.8669565 C105.495824,43.8669565 105.29428,43.7833614 105.125419,43.6105983 C104.956558,43.4378352 104.874851,43.231634 104.874851,42.9864218 C104.874851,42.7523556 104.962005,42.5517274 105.130866,42.3789643 C105.299727,42.2117742 105.506718,42.1281791 105.740945,42.1281791 Z M105.032818,44.7251992 L106.459966,44.7251992 L106.459966,49.7854873 L105.032818,49.7854873 L105.032818,44.7251992 Z M109.830902,44.7251992 L109.830902,44.9592654 C110.168624,44.6861882 110.544476,44.5468631 110.958458,44.5468631 C111.465041,44.5468631 111.906259,44.7196262 112.287558,45.0651525 C112.766905,45.5054198 112.973896,46.0961583 112.973896,47.0547151 L112.973896,49.7854873 L111.546748,49.7854873 L111.546748,47.1383102 C111.546748,46.6980428 111.497724,46.3803815 111.405123,46.1964724 C111.290733,45.9791252 111.067401,45.8676651 110.740573,45.8676651 C110.413745,45.8676651 110.108706,46.0181362 109.983422,46.2466294 C109.879926,46.4305386 109.830902,46.7649188 109.830902,47.2386242 L109.830902,49.7854873 L108.403754,49.7854873 L108.403754,44.7251992 L109.830902,44.7251992 Z M118.284011,48.0244179 L119.536851,48.5315613 C118.959455,49.484545 118.175068,49.9638234 117.189138,49.9638234 C116.404751,49.9638234 115.767437,49.6796002 115.271748,49.1055807 C114.819636,48.5928643 114.596304,47.9742608 114.596304,47.2553432 C114.596304,46.4305386 114.879555,45.750632 115.446056,45.2156236 C115.919957,44.7697832 116.475564,44.5468631 117.123772,44.5468631 C117.853688,44.5468631 118.458319,44.8199403 118.943114,45.3716677 C119.389778,45.8843841 119.613111,46.5475717 119.613111,47.3612303 C119.613111,47.4113874 119.607664,47.5451395 119.602216,47.7624867 L116.061582,47.7624867 C116.241337,48.3699441 116.611742,48.6708864 117.183691,48.6708864 C117.657591,48.6708864 118.027996,48.4535392 118.284011,48.0244179 Z M116.061582,46.7426268 L118.196857,46.7426268 C118.00076,46.1295963 117.646697,45.8230811 117.129219,45.8230811 C116.579059,45.8230811 116.219549,46.1295963 116.061582,46.7426268 Z M126.181512,42.1783361 L126.181512,49.7854873 L124.754364,49.7854873 L124.754364,49.5012641 C124.34583,49.8077793 123.915506,49.9638234 123.468842,49.9638234 C123.027624,49.9638234 122.613642,49.8467903 122.226896,49.6182972 C121.829256,49.378658 121.513322,49.0554237 121.284543,48.6485944 C121.044869,48.225046 120.925032,47.7569137 120.925032,47.2497702 C120.925032,46.4305386 121.21373,45.750632 121.791126,45.2156236 C122.27592,44.7697832 122.831527,44.5468631 123.468842,44.5468631 C123.915506,44.5468631 124.34583,44.7029072 124.754364,45.0149954 L124.754364,42.1783361 L126.181512,42.1783361 Z M123.555996,45.8676651 C123.212827,45.8676651 122.924129,45.9958442 122.689902,46.2577754 C122.472017,46.4974146 122.363074,46.8373679 122.363074,47.2664893 C122.363074,47.7346216 122.5047,48.0912939 122.782503,48.3420791 C123.005836,48.5427073 123.272745,48.6430214 123.577784,48.6430214 C123.926401,48.6430214 124.215098,48.5148423 124.438431,48.2640571 C124.656316,48.0132719 124.765259,47.6733186 124.765259,47.2386242 C124.765259,46.7704919 124.62908,46.4138196 124.351277,46.1630344 C124.138839,45.9679792 123.871929,45.8676651 123.555996,45.8676651 Z M133.114035,49.7854873 L131.626968,49.7854873 L131.626968,42.1783361 L133.005092,42.1783361 L135.341911,46.3915275 L137.67873,42.1783361 L139.056854,42.1783361 L139.056854,49.7854873 L137.569787,49.7854873 L137.569787,45.1877586 L135.892071,48.236192 L134.791751,48.236192 L133.114035,45.1877586 L133.114035,49.7854873 Z M144.563065,48.0244179 L145.815905,48.5315613 C145.238509,49.484545 144.454122,49.9638234 143.468192,49.9638234 C142.683805,49.9638234 142.046491,49.6796002 141.550802,49.1055807 C141.09869,48.5928643 140.875358,47.9742608 140.875358,47.2553432 C140.875358,46.4305386 141.158609,45.750632 141.72511,45.2156236 C142.199011,44.7697832 142.754618,44.5468631 143.402826,44.5468631 C144.132742,44.5468631 144.737373,44.8199403 145.222168,45.3716677 C145.668832,45.8843841 145.892165,46.5475717 145.892165,47.3612303 C145.892165,47.4113874 145.886718,47.5451395 145.88127,47.7624867 L142.340636,47.7624867 C142.520391,48.3699441 142.890796,48.6708864 143.462745,48.6708864 C143.936645,48.6708864 144.30705,48.4535392 144.563065,48.0244179 Z M142.340636,46.7426268 L144.475911,46.7426268 C144.279814,46.1295963 143.925751,45.8230811 143.408273,45.8230811 C142.858113,45.8230811 142.498603,46.1295963 142.340636,46.7426268 Z M152.460566,42.1783361 L152.460566,49.7854873 L151.033418,49.7854873 L151.033418,49.5012641 C150.624884,49.8077793 150.19456,49.9638234 149.747896,49.9638234 C149.306678,49.9638234 148.892696,49.8467903 148.50595,49.6182972 C148.108309,49.378658 147.792376,49.0554237 147.563596,48.6485944 C147.323923,48.225046 147.204086,47.7569137 147.204086,47.2497702 C147.204086,46.4305386 147.492784,45.750632 148.07018,45.2156236 C148.554974,44.7697832 149.110581,44.5468631 149.747896,44.5468631 C150.19456,44.5468631 150.624884,44.7029072 151.033418,45.0149954 L151.033418,42.1783361 L152.460566,42.1783361 Z M149.83505,45.8676651 C149.491881,45.8676651 149.203183,45.9958442 148.968956,46.2577754 C148.751071,46.4974146 148.642128,46.8373679 148.642128,47.2664893 C148.642128,47.7346216 148.783754,48.0912939 149.061557,48.3420791 C149.28489,48.5427073 149.551799,48.6430214 149.856838,48.6430214 C150.205455,48.6430214 150.494152,48.5148423 150.717485,48.2640571 C150.93537,48.0132719 151.044313,47.6733186 151.044313,47.2386242 C151.044313,46.7704919 150.908134,46.4138196 150.630331,46.1630344 C150.417893,45.9679792 150.150983,45.8676651 149.83505,45.8676651 Z M155.112482,42.1281791 C155.373944,42.1281791 155.591829,42.2284932 155.766137,42.4235483 C155.91321,42.5851655 155.984022,42.7802206 155.984022,42.9975678 C155.984022,43.237207 155.902315,43.4434082 155.733454,43.6105983 C155.564593,43.7833614 155.352155,43.8669565 155.107034,43.8669565 C154.867361,43.8669565 154.665817,43.7833614 154.496956,43.6105983 C154.328095,43.4378352 154.246388,43.231634 154.246388,42.9864218 C154.246388,42.7523556 154.333542,42.5517274 154.502403,42.3789643 C154.671264,42.2117742 154.878255,42.1281791 155.112482,42.1281791 Z M154.404355,44.7251992 L155.831503,44.7251992 L155.831503,49.7854873 L154.404355,49.7854873 L154.404355,44.7251992 Z M162.836853,44.7251992 L162.836853,49.7854873 L161.409705,49.7854873 L161.409705,49.5012641 C161.00117,49.8077793 160.570847,49.9638234 160.124182,49.9638234 C159.682965,49.9638234 159.263536,49.8467903 158.876789,49.6182972 C158.479149,49.378658 158.163215,49.0554237 157.934436,48.6485944 C157.694762,48.225046 157.574925,47.7569137 157.574925,47.2497702 C157.574925,46.4305386 157.863623,45.750632 158.441019,45.2156236 C158.925814,44.7697832 159.486868,44.5468631 160.124182,44.5468631 C160.570847,44.5468631 161.00117,44.7029072 161.409705,45.0094224 L161.409705,44.7251992 L162.836853,44.7251992 Z M160.211336,45.8676651 C159.868167,45.8676651 159.574022,45.9958442 159.339795,46.2577754 C159.12191,46.4974146 159.012968,46.8373679 159.012968,47.2720623 C159.012968,47.7346216 159.149146,48.0912939 159.42695,48.3365061 C159.655729,48.5427073 159.922638,48.6430214 160.227678,48.6430214 C160.581741,48.6430214 160.870439,48.5148423 161.093771,48.2640571 C161.317104,48.0132719 161.426046,47.6733186 161.426046,47.2441972 C161.426046,46.7704919 161.289868,46.4138196 161.012064,46.1630344 C160.794179,45.9679792 160.52727,45.8676651 160.211336,45.8676651 Z M174.463901,43.4489812 L173.407158,44.463268 C173.162037,44.1901908 172.938705,43.9784166 172.737161,43.8335185 C172.361309,43.5604413 171.94188,43.4266892 171.46798,43.4266892 C170.743511,43.4266892 170.144327,43.6997664 169.670427,44.2403478 C169.245551,44.7307722 169.033113,45.3103647 169.033113,45.9846982 C169.033113,46.7593458 169.305469,47.4002414 169.850182,47.8962388 C170.313188,48.3253601 170.852454,48.5371343 171.473427,48.5371343 C171.843832,48.5371343 172.176107,48.4591122 172.464804,48.3030681 C172.753502,48.147024 173.08033,47.8739467 173.445288,47.4838364 L174.496584,48.4981232 C174.142521,48.8715146 173.815693,49.1613108 173.510653,49.3619389 C172.906022,49.7631953 172.230578,49.9638234 171.484321,49.9638234 C170.748958,49.9638234 170.068067,49.7743413 169.441647,49.40095 C168.858804,49.0498507 168.401245,48.5761453 168.058076,47.9742608 C167.704013,47.3556573 167.529705,46.6924698 167.529705,45.9846982 C167.529705,45.2769266 167.704013,44.6193121 168.058076,44.0007086 C168.41214,43.3709591 168.891487,42.8805347 169.501566,42.5294354 C170.106197,42.1783361 170.7653,42 171.478874,42 C172.050823,42 172.573747,42.1114601 173.047647,42.3399533 C173.516101,42.5684465 173.990001,42.9418378 174.463901,43.4489812 Z M177.535245,44.7251992 L177.535245,44.9982764 C177.813049,44.7920753 178.112641,44.6917612 178.434022,44.6917612 C178.5702,44.6917612 178.733614,44.7029072 178.929711,44.7307722 L178.929711,46.0292823 C178.717273,46.0125632 178.553859,46.0014172 178.439469,46.0014172 C178.0963,46.0014172 177.856626,46.0961583 177.731342,46.2856405 C177.600611,46.4806956 177.535245,46.8317949 177.535245,47.3445113 L177.535245,49.7854873 L176.108097,49.7854873 L176.108097,44.7251992 L177.535245,44.7251992 Z M183.711454,48.0244179 L184.964294,48.5315613 C184.386898,49.484545 183.602511,49.9638234 182.616581,49.9638234 C181.832194,49.9638234 181.19488,49.6796002 180.699191,49.1055807 C180.247079,48.5928643 180.023747,47.9742608 180.023747,47.2553432 C180.023747,46.4305386 180.306997,45.750632 180.873499,45.2156236 C181.347399,44.7697832 181.903007,44.5468631 182.551215,44.5468631 C183.28113,44.5468631 183.885762,44.8199403 184.370556,45.3716677 C184.817221,45.8843841 185.040553,46.5475717 185.040553,47.3612303 C185.040553,47.4113874 185.035106,47.5451395 185.029659,47.7624867 L181.489025,47.7624867 C181.66878,48.3699441 182.039185,48.6708864 182.611133,48.6708864 C183.085034,48.6708864 183.455439,48.4535392 183.711454,48.0244179 Z M181.489025,46.7426268 L183.6243,46.7426268 C183.428203,46.1295963 183.07414,45.8230811 182.556662,45.8230811 C182.006502,45.8230811 181.646991,46.1295963 181.489025,46.7426268 Z M191.608955,44.7251992 L191.608955,49.7854873 L190.181807,49.7854873 L190.181807,49.5012641 C189.773272,49.8077793 189.342949,49.9638234 188.896284,49.9638234 C188.455067,49.9638234 188.035638,49.8467903 187.648892,49.6182972 C187.251251,49.378658 186.935318,49.0554237 186.706538,48.6485944 C186.466864,48.225046 186.347028,47.7569137 186.347028,47.2497702 C186.347028,46.4305386 186.635725,45.750632 187.213121,45.2156236 C187.697916,44.7697832 188.25897,44.5468631 188.896284,44.5468631 C189.342949,44.5468631 189.773272,44.7029072 190.181807,45.0094224 L190.181807,44.7251992 L191.608955,44.7251992 Z M188.983438,45.8676651 C188.640269,45.8676651 188.346124,45.9958442 188.111898,46.2577754 C187.894012,46.4974146 187.78507,46.8373679 187.78507,47.2720623 C187.78507,47.7346216 187.921248,48.0912939 188.199052,48.3365061 C188.427831,48.5427073 188.694741,48.6430214 188.99978,48.6430214 C189.353843,48.6430214 189.642541,48.5148423 189.865874,48.2640571 C190.089206,48.0132719 190.198148,47.6733186 190.198148,47.2441972 C190.198148,46.7704919 190.06197,46.4138196 189.784167,46.1630344 C189.566281,45.9679792 189.299372,45.8676651 188.983438,45.8676651 Z M195.829644,46.0348553 L195.088834,46.0348553 L195.088834,48.0857209 C195.088834,48.4145282 195.143305,48.5259883 195.295825,48.5259883 C195.432003,48.5259883 195.6281,48.4758312 195.895009,48.3810902 L195.895009,49.7409033 C195.617206,49.8356443 195.344849,49.8858014 195.088834,49.8858014 C194.653064,49.8858014 194.304447,49.7409033 194.048432,49.445534 C193.792417,49.1501648 193.661686,48.7098974 193.661686,48.1191589 L193.661686,46.0348553 L193.155103,46.0348553 L193.155103,44.7251992 L193.661686,44.7251992 L193.661686,43.6774744 L195.088834,43.1090279 L195.088834,44.7251992 L195.829644,44.7251992 L195.829644,46.0348553 Z M198.25278,42.1281791 C198.514242,42.1281791 198.732127,42.2284932 198.906435,42.4235483 C199.053508,42.5851655 199.12432,42.7802206 199.12432,42.9975678 C199.12432,43.237207 199.042613,43.4434082 198.873752,43.6105983 C198.704891,43.7833614 198.492453,43.8669565 198.247332,43.8669565 C198.007659,43.8669565 197.806115,43.7833614 197.637254,43.6105983 C197.468393,43.4378352 197.386686,43.231634 197.386686,42.9864218 C197.386686,42.7523556 197.47384,42.5517274 197.642701,42.3789643 C197.811562,42.2117742 198.018553,42.1281791 198.25278,42.1281791 Z M197.544653,44.7251992 L198.971801,44.7251992 L198.971801,49.7854873 L197.544653,49.7854873 L197.544653,44.7251992 Z M203.301432,44.5468631 C204.074924,44.5468631 204.723133,44.8478053 205.251505,45.4441168 C205.692722,45.9512602 205.916054,46.5531447 205.916054,47.2497702 C205.916054,48.0634289 205.627357,48.7377624 205.055408,49.2671979 C204.554272,49.7297572 203.955088,49.9638234 203.257855,49.9638234 C202.45168,49.9638234 201.78713,49.6628812 201.264205,49.0665697 C200.822988,48.5594263 200.599656,47.9463958 200.599656,47.2330512 C200.599656,46.4416846 200.888353,45.7784971 201.460302,45.2434886 C201.955991,44.7809292 202.571517,44.5468631 203.301432,44.5468631 Z M203.246961,45.8676651 C203.023628,45.8676651 202.81119,45.9289682 202.620541,46.0460013 C202.233795,46.2856405 202.037698,46.6813238 202.037698,47.2386242 C202.037698,47.7234756 202.173876,48.0857209 202.45168,48.3365061 C202.680459,48.5427073 202.947369,48.6430214 203.257855,48.6430214 C203.617366,48.6430214 203.916958,48.5148423 204.151184,48.2529111 C204.369069,48.0076989 204.478012,47.6733186 204.478012,47.2441972 C204.478012,46.7760649 204.341834,46.4193926 204.06403,46.1741804 C203.840698,45.9679792 203.568341,45.8676651 203.246961,45.8676651 Z M208.857006,44.7251992 L208.857006,44.9592654 C209.194728,44.6861882 209.57058,44.5468631 209.984562,44.5468631 C210.491145,44.5468631 210.932363,44.7196262 211.313662,45.0651525 C211.793009,45.5054198 212,46.0961583 212,47.0547151 L212,49.7854873 L210.572852,49.7854873 L210.572852,47.1383102 C210.572852,46.6980428 210.523828,46.3803815 210.431227,46.1964724 C210.316837,45.9791252 210.093504,45.8676651 209.766677,45.8676651 C209.439849,45.8676651 209.13481,46.0181362 209.009526,46.2466294 C208.90603,46.4305386 208.857006,46.7649188 208.857006,47.2386242 L208.857006,49.7854873 L207.429858,49.7854873 L207.429858,44.7251992 L208.857006,44.7251992 Z" id="StreamlinedMediaCreation" fill="#4F4F50"></path>
        </g>
    </g>
</svg>